<svg width="16" height="14" viewBox="0 0 16 14" fill="none" xmlns="http://www.w3.org/2000/svg">
<path d="M9.91328 0.711692L15.5383 6.33669C15.6257 6.42379 15.695 6.52728 15.7423 6.64124C15.7897 6.75519 15.814 6.87737 15.814 7.00075C15.814 7.12414 15.7897 7.24632 15.7423 7.36027C15.695 7.47423 15.6257 7.57772 15.5383 7.66482L9.91328 13.2898C9.73716 13.4659 9.49829 13.5649 9.24922 13.5649C9.00015 13.5649 8.76128 13.4659 8.58516 13.2898C8.40904 13.1137 8.31009 12.8748 8.31009 12.6258C8.31009 12.3767 8.40904 12.1378 8.58516 11.9617L12.6094 7.93747L1.125 7.93747C0.87636 7.93747 0.637903 7.8387 0.462087 7.66289C0.286272 7.48707 0.1875 7.24861 0.1875 6.99997C0.1875 6.75133 0.286272 6.51288 0.462087 6.33706C0.637903 6.16125 0.87636 6.06247 1.125 6.06247L12.6094 6.06247L8.58437 2.03826C8.40825 1.86214 8.30931 1.62326 8.30931 1.37419C8.30931 1.12512 8.40825 0.886251 8.58437 0.710131C8.76049 0.53401 8.99937 0.435064 9.24844 0.435064C9.49751 0.435064 9.73638 0.53401 9.9125 0.710131L9.91328 0.711692Z" fill="white"/>
</svg>
