<svg width="12" height="7" viewBox="0 0 12 7" fill="none" xmlns="http://www.w3.org/2000/svg">
<path d="M0.469402 5.46945L5.4694 0.469449C5.53908 0.399529 5.62187 0.344052 5.71304 0.306198C5.8042 0.268344 5.90194 0.248858 6.00065 0.248858C6.09936 0.248858 6.1971 0.268344 6.28827 0.306198C6.37943 0.344052 6.46222 0.399529 6.5319 0.469449L11.5319 5.46945C11.6728 5.61034 11.752 5.80144 11.752 6.0007C11.752 6.19996 11.6728 6.39105 11.5319 6.53195C11.391 6.67284 11.1999 6.752 11.0007 6.752C10.8014 6.752 10.6103 6.67284 10.4694 6.53195L6.00003 2.06257L1.53065 6.53257C1.38976 6.67347 1.19866 6.75263 0.999403 6.75263C0.800145 6.75263 0.609049 6.67347 0.468153 6.53257C0.327257 6.39168 0.2481 6.20058 0.2481 6.00132C0.2481 5.80207 0.327257 5.61097 0.468153 5.47007L0.469402 5.46945Z" fill="black"/>
</svg>
