<svg viewBox="0 0 22 21" fill="none" xmlns="http://www.w3.org/2000/svg">
    <g transform="translate(0, 4.3)">
        <path
            fill-rule="evenodd"
            clip-rule="evenodd"
            d="M10.6068 0.226562C7.01591 0.226562 4.12695 3.11552 4.12695 6.70646C4.12695 9.56841 5.98992 11.9984 8.55488 12.8624C8.87888 12.9164 8.98688 12.7274 8.98688 12.5384C8.98688 12.3764 8.98688 11.9714 8.98688 11.4314C7.1779 11.8364 6.79991 10.5674 6.79991 10.5674C6.50291 9.81141 6.07092 9.62241 6.07092 9.62241C5.47693 9.21742 6.12492 9.21742 6.12492 9.21742C6.77291 9.27142 7.1239 9.89241 7.1239 9.89241C7.6909 10.8914 8.63588 10.5944 9.01387 10.4324C9.06787 10.0004 9.22987 9.73041 9.41887 9.56841C7.98789 9.40642 6.47592 8.83942 6.47592 6.35546C6.47592 5.65347 6.71891 5.05948 7.1509 4.62749C7.09691 4.46549 6.85391 3.8175 7.2049 2.89952C7.2049 2.89952 7.74489 2.73752 8.98688 3.57451C9.49987 3.43951 10.0669 3.35851 10.6068 3.35851C11.1468 3.35851 11.7138 3.43951 12.2268 3.57451C13.4688 2.73752 14.0088 2.89952 14.0088 2.89952C14.3598 3.79051 14.1438 4.43849 14.0628 4.62749C14.4678 5.08648 14.7378 5.65347 14.7378 6.35546C14.7378 8.83942 13.2258 9.37942 11.7678 9.54141C12.0108 9.73041 12.1998 10.1354 12.1998 10.7294C12.1998 11.5934 12.1998 12.2954 12.1998 12.5114C12.1998 12.6734 12.3078 12.8894 12.6588 12.8354C15.2238 11.9984 17.0867 9.56841 17.0867 6.70646C17.0867 3.11552 14.1978 0.226562 10.6068 0.226562Z"
            fill="black"
        />
    </g>
</svg>