<svg width="18" height="18" viewBox="0 0 18 18" fill="none" xmlns="http://www.w3.org/2000/svg">
<path d="M17.2305 8.40469L9.4711 0.645319C9.32643 0.499696 9.15429 0.384242 8.96466 0.305654C8.77503 0.227066 8.57168 0.186908 8.36641 0.187507H1.12501C0.876366 0.187507 0.637909 0.286279 0.462094 0.462094C0.286279 0.637909 0.187507 0.876366 0.187507 1.12501V8.36641C0.186908 8.57168 0.227066 8.77503 0.305654 8.96466C0.384242 9.15429 0.499696 9.32643 0.645319 9.4711L8.40469 17.2305C8.69771 17.5234 9.09506 17.688 9.50938 17.688C9.9237 17.688 10.3211 17.5234 10.6141 17.2305L17.2305 10.6141C17.5234 10.3211 17.688 9.9237 17.688 9.50938C17.688 9.09506 17.5234 8.69771 17.2305 8.40469ZM9.50938 15.6836L2.06251 8.23438V2.06251H8.23438L15.6813 9.50938L9.50938 15.6836ZM5.81251 4.56251C5.81251 4.80973 5.7392 5.05141 5.60184 5.25697C5.46449 5.46253 5.26927 5.62275 5.04086 5.71736C4.81245 5.81197 4.56112 5.83672 4.31864 5.78849C4.07617 5.74026 3.85344 5.62121 3.67862 5.44639C3.50381 5.27157 3.38476 5.04885 3.33652 4.80637C3.28829 4.56389 3.31305 4.31256 3.40766 4.08415C3.50227 3.85574 3.66248 3.66052 3.86804 3.52317C4.07361 3.38582 4.31528 3.31251 4.56251 3.31251C4.89403 3.31251 5.21197 3.4442 5.44639 3.67862C5.68081 3.91304 5.81251 4.23099 5.81251 4.56251Z" fill="black" fill-opacity="0.4"/>
</svg>
